<?xml version="1.0" encoding="UTF-8" standalone="no"?>
<svg xmlns:dc="http://purl.org/dc/elements/1.1/" xmlns:cc="http://creativecommons.org/ns#" xmlns:rdf="http://www.w3.org/1999/02/22-rdf-syntax-ns#" xmlns:svg="http://www.w3.org/2000/svg" xmlns="http://www.w3.org/2000/svg" xmlns:xlink="http://www.w3.org/1999/xlink" viewBox="0 0 128 128" id="svg2" version="1.1">
  <defs id="defs9">
    <linearGradient id="linearGradient4203">
      <stop style="stop-color:#006290;stop-opacity:1" offset="0" id="stop4205" />
      <stop id="stop4209" offset="0.53406" style="stop-color:#00a4af;stop-opacity:0.682353" />
      <stop style="stop-color:#0096cb;stop-opacity:0.407843" offset="1" id="stop4207" />
    </linearGradient>
    <linearGradient id="linearGradient4149">
      <stop id="stop4169" offset="0" style="stop-color:#006290;stop-opacity:1" />
      <stop id="stop4171" offset="1" style="stop-color:#0096cb;stop-opacity:0.407843" />
    </linearGradient>
    <linearGradient gradientUnits="userSpaceOnUse" y2="290.147" x2="72.4558" y1="383.436" x1="153.091" id="linearGradient4145" xlink:href="#linearGradient4149" />
    <linearGradient y2="319.448" x2="100.894" y1="374.77" x1="152.962" gradientUnits="userSpaceOnUse" id="linearGradient4147" xlink:href="#linearGradient4203" />
    <linearGradient gradientUnits="userSpaceOnUse" y2="282.655" x2="75.3115" y1="335.809" x1="122.14" id="linearGradient4201" xlink:href="#linearGradient4203" />
  </defs>
  <g style="fill-opacity:1;fill:url(#linearGradient4145)" transform="translate(-47.199 -267.38)" id="g36">
    <path fill="#382509" d="m150.8 354.56c-24.624 32.053-54.677 43.388-75.315 29.139-22.147-15.291-29.031-54.12-1.3013-80.745 24.739-23.754 53.549-36.083 75.315-29.139 23.838 7.6053 23.384 46.451 1.3013 80.745z" id="path40" style="fill:#100062;fill-opacity:0.862944" />
    <path fill="url(#h)" style="fill-opacity:1;fill:url(#linearGradient4201)" d="m136.54 275.09c-18.304 0.10355-40.459 11.243-60.156 30.156-18.357 17.626-20.528 40.58-13.344 57.656 11.238-12.446 27.008-23.305 42.719-35.094 18.526-13.901 37.094-28.864 49.281-47.469-1.8506-1.5012-4.0054-2.7254-6.5312-3.5312-3.739-1.1929-7.7447-1.7426-11.969-1.7188z" id="path50" />
    <path fill="url(#i)" d="m161.64 289.72c-13.279 18.798-31.867 33.449-49.469 46.656-17.176 12.887-33.286 24.634-43.344 36.562 2.4559 3.172 5.3445 5.9248 8.5312 8.125 9.3967 6.4877 20.697 7.2037 33.125 2.4375 12.37-4.7441 25.63-15.105 37.625-30.656 0.0489-0.076 0.10754-0.1427 0.15625-0.21875 9.3143-14.539 14.616-29.887 15.719-42.938 0.65261-7.724-0.19592-14.533-2.3438-19.969z" id="path52" style="fill-opacity:1.0;fill:url(#linearGradient4147)" />
  </g>
</svg>
